<svg width="47" height="58" viewBox="0 0 47 58" fill="none" xmlns="http://www.w3.org/2000/svg">
<path d="M9 11L0 20.5L9 30L18 20.5L9 11Z" fill="url(#paint0_linear_3929_22388)"/>
<path d="M18.0549 20.005C15.1158 15.916 9.0275 11 9.0275 11C11.4198 13.3872 12.7637 16.6245 12.7637 20C12.7637 23.3755 11.4198 26.6128 9.0275 29L0 37.995L10.1366 36.8787L9.0275 47L18.0549 37.995C18.0549 37.995 22 32.8342 22 29C22 25.1658 20.2947 23.1211 18.0549 20.005Z" fill="#FF409C"/>
<path d="M11 49L15.321 53.1431L20.5 58L30 49L20.5 40L11 49Z" fill="url(#paint1_linear_3929_22388)"/>
<path d="M20.005 40.3894C15.7581 42.92 11 49.1946 11 49.1946C13.3872 46.8612 16.6245 45.5503 20 45.5503C23.3754 45.5503 26.6127 46.8612 28.9999 49.1946L33.4975 53.5973L37.995 58C41.5117 54.5613 47 49.1946 47 49.1946C47 49.1946 42.2419 42.92 37.995 40.3894C34.7803 38.4738 32.7645 37 28.9999 37C25.2354 37 23.2197 38.4738 20.005 40.3894Z" fill="#7654FF"/>
<path d="M47 9.50004L37.5 0L28 9.49996L37.5 19L47 9.50004Z" fill="url(#paint2_linear_3929_22388)"/>
<path d="M38.0075 19.2865L47 9.64329C44.6134 12.1988 41.377 13.6344 38.0025 13.6344C34.6279 13.6344 31.3916 12.1988 29.005 9.64329L20.0025 0L15.5476 5.02851L11 9.64329L20.0025 19.2865C20.0025 19.2865 25.4476 24.2022 29.5462 23.9935C33.2654 23.8042 38.0075 19.2865 38.0075 19.2865Z" fill="#7654FF"/>
<defs>
<linearGradient id="paint0_linear_3929_22388" x1="9" y1="11" x2="9" y2="30" gradientUnits="userSpaceOnUse">
<stop stop-color="#5754FF"/>
<stop offset="1" stop-color="#E90DD3"/>
</linearGradient>
<linearGradient id="paint1_linear_3929_22388" x1="20.5" y1="40" x2="20.5" y2="58" gradientUnits="userSpaceOnUse">
<stop stop-color="#574799"/>
<stop offset="1" stop-color="#9277FF"/>
</linearGradient>
<linearGradient id="paint2_linear_3929_22388" x1="37.5" y1="0" x2="37.5" y2="19" gradientUnits="userSpaceOnUse">
<stop stop-color="#9277FF"/>
<stop offset="1" stop-color="#574799"/>
</linearGradient>
</defs>
</svg>
